<svg width="172" height="31" viewBox="0 0 172 31" fill="none" xmlns="http://www.w3.org/2000/svg">
<path d="M0.528409 30V0.90909H12.0057C14.2121 0.90909 16.0919 1.33049 17.6449 2.1733C19.1979 3.00663 20.3816 4.16667 21.196 5.65341C22.0199 7.13068 22.4318 8.83523 22.4318 10.767C22.4318 12.6989 22.0152 14.4034 21.1818 15.8807C20.3485 17.358 19.1411 18.5085 17.5597 19.3324C15.9877 20.1562 14.0843 20.5682 11.8494 20.5682H4.53409V15.6392H10.8551C12.0388 15.6392 13.0142 15.4356 13.7812 15.0284C14.5578 14.6117 15.1354 14.0388 15.5142 13.3097C15.9025 12.571 16.0966 11.7235 16.0966 10.767C16.0966 9.80114 15.9025 8.95833 15.5142 8.23864C15.1354 7.50947 14.5578 6.94602 13.7812 6.5483C13.0047 6.1411 12.0199 5.9375 10.8267 5.9375H6.67898V30H0.528409ZM26.4268 30V0.90909H37.9041C40.1011 0.90909 41.9761 1.30208 43.5291 2.08807C45.0916 2.86458 46.2801 3.9678 47.0945 5.39773C47.9183 6.81818 48.3303 8.48958 48.3303 10.4119C48.3303 12.3437 47.9136 14.0057 47.0803 15.3977C46.2469 16.7803 45.0395 17.8409 43.4581 18.5795C41.8861 19.3182 39.9827 19.6875 37.7479 19.6875H30.0632V14.7443H36.7536C37.9278 14.7443 38.9032 14.5833 39.6797 14.2614C40.4562 13.9394 41.0339 13.4564 41.4126 12.8125C41.8009 12.1686 41.995 11.3684 41.995 10.4119C41.995 9.44602 41.8009 8.63163 41.4126 7.96875C41.0339 7.30587 40.4515 6.80398 39.6655 6.46307C38.889 6.11269 37.9089 5.9375 36.7251 5.9375H32.5774V30H26.4268ZM42.1371 16.7614L49.3672 30H42.5774L35.5036 16.7614H42.1371ZM79.4098 15.4545C79.4098 18.6269 78.8085 21.3258 77.6058 23.5511C76.4126 25.7765 74.7839 27.4763 72.7195 28.6506C70.6645 29.8153 68.3539 30.3977 65.7876 30.3977C63.2024 30.3977 60.8823 29.8106 58.8274 28.6364C56.7725 27.4621 55.1484 25.7623 53.9553 23.5369C52.7621 21.3116 52.1655 18.6174 52.1655 15.4545C52.1655 12.2822 52.7621 9.58333 53.9553 7.35795C55.1484 5.13258 56.7725 3.4375 58.8274 2.27273C60.8823 1.09848 63.2024 0.511363 65.7876 0.511363C68.3539 0.511363 70.6645 1.09848 72.7195 2.27273C74.7839 3.4375 76.4126 5.13258 77.6058 7.35795C78.8085 9.58333 79.4098 12.2822 79.4098 15.4545ZM73.174 15.4545C73.174 13.3996 72.8662 11.6667 72.2507 10.2557C71.6446 8.8447 70.7876 7.77462 69.6797 7.04545C68.5717 6.31629 67.2744 5.9517 65.7876 5.9517C64.3009 5.9517 63.0036 6.31629 61.8956 7.04545C60.7876 7.77462 59.9259 8.8447 59.3104 10.2557C58.7043 11.6667 58.4013 13.3996 58.4013 15.4545C58.4013 17.5095 58.7043 19.2424 59.3104 20.6534C59.9259 22.0644 60.7876 23.1345 61.8956 23.8636C63.0036 24.5928 64.3009 24.9574 65.7876 24.9574C67.2744 24.9574 68.5717 24.5928 69.6797 23.8636C70.7876 23.1345 71.6446 22.0644 72.2507 20.6534C72.8662 19.2424 73.174 17.5095 73.174 15.4545ZM89.4205 30L81.0966 0.90909H87.8153L92.6307 21.1222H92.8722L98.1847 0.90909H103.938L109.236 21.1648H109.491L114.307 0.90909H121.026L112.702 30H106.707L101.168 10.9801H100.94L95.4148 30H89.4205ZM124.317 30V0.90909H143.92V5.98011H130.468V12.9119H142.911V17.983H130.468V24.929H143.977V30H124.317ZM148.81 30V0.90909H160.457C162.598 0.90909 164.383 1.22633 165.812 1.8608C167.242 2.49527 168.317 3.37595 169.037 4.50284C169.757 5.62027 170.116 6.90814 170.116 8.36648C170.116 9.50284 169.889 10.5019 169.435 11.3636C168.98 12.2159 168.355 12.9167 167.56 13.4659C166.774 14.0057 165.874 14.3892 164.861 14.6165V14.9006C165.969 14.9479 167.006 15.2604 167.972 15.8381C168.947 16.4157 169.738 17.2254 170.344 18.267C170.95 19.2992 171.253 20.5303 171.253 21.9602C171.253 23.5038 170.869 24.8816 170.102 26.0938C169.345 27.2964 168.223 28.2481 166.736 28.9489C165.249 29.6496 163.417 30 161.239 30H148.81ZM154.96 24.9716H159.974C161.688 24.9716 162.938 24.6449 163.724 23.9915C164.51 23.3286 164.903 22.4479 164.903 21.3494C164.903 20.5445 164.709 19.8343 164.321 19.2188C163.933 18.6032 163.379 18.1203 162.659 17.7699C161.949 17.4195 161.101 17.2443 160.116 17.2443H154.96V24.9716ZM154.96 13.0824H159.52C160.363 13.0824 161.111 12.9356 161.764 12.642C162.427 12.339 162.948 11.9129 163.327 11.3636C163.715 10.8144 163.909 10.1562 163.909 9.3892C163.909 8.33807 163.535 7.49053 162.787 6.84659C162.048 6.20265 160.997 5.88068 159.634 5.88068H154.96V13.0824Z" fill="white"/>
</svg>
